<svg xmlns="http://www.w3.org/2000/svg" height="80" viewBox="0 0 512 512" width="80"><circle cx="256" cy="256" fill="#ffce00" r="256"/><path d="M277.616 511.1c125.346-10.48 225.022-111.269 233.762-237.103L327.338 88.532l-10.565-9.138-125.372 235.6 95.91 95.91-58.338 51.553z" fill="#ffa300"/><path d="M256 471.553c-24.7 0-44.724-20.023-44.724-44.724v-133.79h89.448v133.79c0 24.701-20.024 44.724-44.724 44.724z" fill="#a65d4e"/><path d="M256.121 293.039V471.55c24.645-.065 44.603-20.061 44.603-44.721v-133.79z" fill="#784132"/><ellipse cx="256" cy="198.723" fill="#c38778" rx="114.773" ry="140.656"/><path d="M370.773 198.723c0-77.633-51.321-140.574-114.653-140.654v281.309c63.332-.08 114.653-63.021 114.653-140.655z" fill="#a65d4e"/><ellipse cx="256" cy="198.723" fill="#fff" rx="84.608" ry="109.699"/><path d="M340.608 198.723c0-60.533-37.815-109.612-84.487-109.697V308.42c46.672-.084 84.487-49.164 84.487-109.697z" fill="#e9edf5"/><circle cx="256" cy="120.957" fill="#707789" r="15"/><path d="M271 120.957c0-8.244-6.651-14.928-14.88-14.994v29.988c8.229-.065 14.88-6.75 14.88-14.994z" fill="#555a66"/><circle cx="256" cy="227.817" fill="#707789" r="15"/><path d="M271 227.817c0-8.244-6.651-14.928-14.88-14.994v29.988c8.229-.066 14.88-6.751 14.88-14.994z" fill="#555a66"/><circle cx="256" cy="174.387" fill="#707789" r="15"/><path d="M271 174.387c0-8.244-6.651-14.928-14.88-14.994v29.988c8.229-.066 14.88-6.75 14.88-14.994z" fill="#555a66"/><circle cx="298.027" cy="147.672" fill="#555a66" r="15"/><circle cx="298.027" cy="254.532" fill="#555a66" r="15"/><circle cx="298.027" cy="201.102" fill="#555a66" r="15"/><circle cx="213.973" cy="147.672" fill="#707789" r="15"/><circle cx="213.973" cy="254.532" fill="#707789" r="15"/><circle cx="213.973" cy="201.102" fill="#707789" r="15"/><g><circle cx="256" cy="281.247" fill="#707789" r="15"/></g><g><path d="M271 281.247c0-8.244-6.651-14.928-14.88-14.994v29.988c8.229-.066 14.88-6.751 14.88-14.994z" fill="#555a66"/></g></svg>