<svg xmlns="http://www.w3.org/2000/svg" height="80" viewBox="0 0 512 512" width="80"><path d="M126.504 476.879C50.811 432.407 0 350.137 0 256 0 114.615 114.615 0 256 0c63.061 0 120.796 22.801 165.412 60.609l55.785 66.436C499.322 164.914 512 208.977 512 256c0 94.137-50.811 176.407-126.504 220.88z" fill="#fe6a16"/><path d="M385.496 476.88C461.189 432.407 512 350.137 512 256c0-47.023-12.679-91.085-34.803-128.955L302.755 95.41l-58.081-28.916-100.646 62.087 143.173 143.173V499.74z" fill="#ea3e03"/><path d="M382.183 444.048L365.987 283.56c-3.571-35.387-33.36-62.321-68.927-62.321h-82.12c-35.567 0-65.356 26.934-68.927 62.321l-16.196 160.488 34.548 23.276c55.39 37.318 127.879 37.318 183.269 0z" fill="#fff"/><path d="M382.183 444.048L365.987 283.56c-3.571-35.387-33.36-62.321-68.927-62.321h-40.94v274.072c31.93-.023 63.854-9.351 91.514-27.986z" fill="#e9edf5"/><path d="M268.407 392.065h-24.815c-18.97 0-34.348-15.378-34.348-34.348v-22.498c0-25.822 20.933-46.755 46.755-46.755 25.822 0 46.755 20.933 46.755 46.755v22.498c.001 18.969-15.377 34.348-34.347 34.348z" fill="#dce1eb"/><path d="M256.12 288.466v103.599h12.287c18.97 0 34.348-15.378 34.348-34.348v-22.498c0-25.783-20.868-46.688-46.635-46.753z" fill="#bec3d2"/><path d="M268.407 392.064a34.202 34.202 0 0 0 21.863-7.856c-8.538-9.196-20.732-14.95-34.27-14.95-13.538 0-25.732 5.754-34.27 14.95a34.21 34.21 0 0 0 21.863 7.856z" fill="#bec3d2"/><path d="M290.27 384.209c-8.513-9.168-20.66-14.913-34.15-14.947v22.802h12.287a34.205 34.205 0 0 0 21.863-7.855z" fill="#9196aa"/><path d="M270.424 301.779h-28.849c-11.891 0-20.001 12.038-15.533 23.058l1.223 3.017a30.99 30.99 0 0 0 13.734 15.487v28.378h30v-28.378a30.99 30.99 0 0 0 13.734-15.487l1.223-3.017c4.469-11.02-3.64-23.058-15.532-23.058z" fill="#707789"/><path d="M270.424 301.779H256.12v69.94H271v-28.377a30.99 30.99 0 0 0 13.734-15.487l1.223-3.017c4.468-11.021-3.641-23.059-15.533-23.059z" fill="#555a66"/><path d="M204.525 301.403c-6.837 0-12.38-5.543-12.38-12.38v-7.819c0-6.837 5.543-12.38 12.38-12.38 6.837 0 12.38 5.543 12.38 12.38v7.819c0 6.837-5.543 12.38-12.38 12.38z" fill="#707789"/><path d="M307.475 301.403c-6.837 0-12.38-5.543-12.38-12.38v-7.819c0-6.837 5.543-12.38 12.38-12.38 6.837 0 12.38 5.543 12.38 12.38v7.819c0 6.837-5.543 12.38-12.38 12.38z" fill="#555a66"/><path d="M139.142 164.146l80.057 65.913-74.44 65.927z" fill="#fff"/><path d="M165.775 195.133l-26.633-30.988s-24.827 56.405 5.617 131.84l19.741-21.543c20.448-22.298 20.995-56.364 1.275-79.309z" fill="#dce1eb"/><path d="M372.858 164.146l-80.057 65.913 74.44 65.927z" fill="#e9edf5"/><path d="M346.225 195.133l26.633-30.988s24.827 56.405-5.617 131.84L347.5 274.443c-20.448-22.299-20.995-56.365-1.275-79.31z" fill="#bec3d2"/><path d="M256 512c47.248 0 91.506-12.8 129.496-35.121l-3.313-32.832a343.741 343.741 0 0 1-252.366 0l-3.313 32.832C164.494 499.2 208.752 512 256 512z" fill="#7584f2"/><path d="M382.183 444.048a343.664 343.664 0 0 1-126.062 23.996v43.955c47.202-.022 91.418-12.818 129.376-35.12z" fill="#606aea"/><path d="M421.399 60.599c-20.108 9.224-45.308 21.005-45.308 21.005l-97.463-36.799a55.987 55.987 0 0 0-51.536 6.444l-91.034 64.947 5.549 9.201c6.379 10.249 19.941 13.243 30.042 6.633l75.018-46.889 52.908 29.329-58.704 15.765a17.895 17.895 0 0 0-9.265 20.777c2.386 8.646 10.804 14.189 19.687 12.963l75.161-2.147a131.787 131.787 0 0 0 29.84-4.303l120.903-30.481a257.222 257.222 0 0 0-55.798-66.445z" fill="#ffdecf"/><g><path d="M421.399 60.599c-20.108 9.224-45.308 21.005-45.308 21.005l-97.463-36.799a55.927 55.927 0 0 0-22.508-3.456v49.033l43.454 24.089-43.454 11.669v37.698l70.333-2.009a131.787 131.787 0 0 0 29.84-4.303l120.903-30.481a257.186 257.186 0 0 0-55.797-66.446z" fill="#ffbeaa"/></g></svg>