<svg xmlns="http://www.w3.org/2000/svg" height="80" viewBox="0 0 512 512" width="80"><ellipse cx="256" cy="256" fill="#fe6a16" rx="256" ry="256" transform="rotate(-45 255.972 256.066)"/><path d="M512 256c0-11.129-.71-22.091-2.088-32.846L400.168 113.41l-82.424 83.755L214.669 94.09 197.63 131.6l-37.51-37.51-16.717 45.461 38.534 37.722-11.382 13.668-46.951-50.599-19.77 42.571 40.053 40.052-19.467 23.377 79.327 79.327-114.4 82.875 92.572 92.572C205.368 508.195 230.24 512 256 512c141.385 0 256-114.615 256-256z" fill="#ea3e03"/><path d="M234.675 234.518c0 31.206-25.297 0-56.503 0s-56.503 31.206-56.503 0 13.937-78.375 56.503-78.375c45.652.001 56.503 47.17 56.503 78.375z" fill="#ffce00"/><path d="M178.41 156.147v78.375c31.096.157 56.266 31.123 56.266-.004-.001-31.151-10.816-78.206-56.266-78.371z" fill="#fdba12"/><ellipse cx="205.447" cy="116.045" fill="#fdba12" rx="16.834" ry="26.246"/><ellipse cx="150.898" cy="116.045" fill="#ffce00" rx="16.834" ry="26.246"/><g><ellipse cx="242.274" cy="161.976" fill="#fdba12" rx="16.834" ry="26.246"/><ellipse cx="114.071" cy="161.976" fill="#ffce00" rx="16.834" ry="26.246"/></g><g><path d="M378.829 110.465l30.389 30.39-86.755 86.754-30.389-30.389z" fill="#e9edf5"/><path d="M308.058 213.317l86.755-86.755 14.369 14.37-86.755 86.754z" fill="#cdd2e1"/><path d="M134.575 407.052l-45.23 1.493 101.549-101.548 21.868 21.868z" fill="#e9edf5"/><path d="M113.668 407.742l20.907-.69 78.187-78.187-10.108-10.109z" fill="#cdd2e1"/><path d="M287.2 159.775l72.72 72.72-51.41 51.41-72.72-72.72z" fill="#fff"/><path d="M272.927 248.437l51.41-51.41 35.534 35.535-51.41 51.41z" fill="#e9edf5"/><path d="M177.425 309.26l33.034 33.035-23.353 23.353-33.035-33.034z" fill="#fff"/><path d="M171.34 349.997l23.354-23.354 15.692 15.692-23.354 23.354z" fill="#e9edf5"/><path d="M246.929 200.06l72.72 72.72-93.28 93.28-72.72-72.721z" fill="#bfe1ff"/><path d="M190.774 330.577l93.28-93.279 35.534 35.535-93.28 93.279z" fill="#87c7ff"/><path d="M372.995 86.215l60.465 60.464-22.31 22.31-60.464-60.465z" fill="#fff"/><path d="M381.717 139.667l22.309-22.31 29.407 29.408-22.31 22.31z" fill="#e9edf5"/></g></svg>